<svg width="937" height="403" viewBox="0 0 937 403" fill="none" xmlns="http://www.w3.org/2000/svg">
<g filter="url(#filter0_d_79_39)">
<path d="M170.022 258V0.0779786H285.367C311.8 0.0779786 334.361 4.48349 353.051 13.2945C371.741 21.8385 386.026 35.7225 395.905 54.9465C405.784 73.9035 410.723 99.135 410.723 130.641C410.723 174.963 399.909 207.27 378.282 227.562C356.655 247.854 325.684 258 285.367 258H170.022ZM245.316 200.328H275.755C288.304 200.328 298.85 198.592 307.394 195.121C315.938 191.383 322.479 184.575 327.018 174.696C331.557 164.55 333.827 149.865 333.827 130.641C333.827 111.417 331.691 96.5985 327.419 86.1855C323.414 75.5055 317.14 68.163 308.596 64.158C300.052 59.886 289.105 57.75 275.755 57.75H245.316V200.328Z" fill="url(#paint0_linear_79_39)"/>
<path d="M491.277 258V56.148H418.786V0.0779786H639.061V56.148H566.571V258H491.277Z" fill="url(#paint1_linear_79_39)"/>
<path d="M658.914 258V0.0779786H732.206L796.286 131.042L859.965 0.0779786H932.856V258H857.562V129.039L816.311 213.945H775.86L734.208 129.039V258H658.914Z" fill="url(#paint2_linear_79_39)"/>
<path d="M88 0H204.679L218.5 131.042L204.679 258H88L135.5 129.039L88 0Z" fill="url(#paint3_linear_79_39)"/>
<path d="M4 377.925V313.993H24.8508C32.3159 313.993 37.9276 316.475 41.6859 321.438C45.4957 326.336 47.4006 334.609 47.4006 346.257C47.4006 357.243 45.5215 365.284 41.7632 370.38C38.0563 375.41 32.4189 377.925 24.8508 377.925H4ZM14.4254 367.6H23.3835C26.3181 367.6 28.7893 367.038 30.7972 365.913C32.805 364.722 34.298 362.604 35.2762 359.559C36.3059 356.449 36.8207 352.015 36.8207 346.257C36.8207 340.499 36.3574 336.098 35.4307 333.053C34.504 330.009 33.0624 327.924 31.1061 326.799C29.1497 325.674 26.5755 325.111 23.3835 325.111H14.4254V367.6Z" fill="#3276AE"/>
<path d="M52.3623 377.925V313.993H88.0404V324.416H62.7877V340.797H85.1831V351.121H62.7877V367.6H88.0404V377.925H52.3623Z" fill="#3276AE"/>
<path d="M92.9569 377.925V313.993H103.382V367.6H127.863V377.925H92.9569Z" fill="#3276AE"/>
<path d="M131.289 377.925V313.993H141.714V377.925H131.289Z" fill="#3276AE"/>
<path d="M148.203 377.925V313.993H157.238L180.792 356.581V313.993H191.218V377.925H182.182L158.629 335.337V377.925H148.203Z" fill="#3276AE"/>
<path d="M227.351 395C223.232 395 220.195 393.577 218.239 390.731C216.282 387.885 215.253 383.815 215.15 378.521C202.485 376.337 196.152 365.582 196.152 346.257C196.152 334.542 198.186 326.071 202.253 320.843C206.32 315.614 212.344 313 220.324 313C228.304 313 234.327 315.614 238.394 320.843C242.462 326.071 244.495 334.542 244.495 346.257C244.495 366.31 237.674 377.131 224.03 378.719C224.133 381.366 224.623 383.153 225.498 384.08C226.424 385.006 227.84 385.47 229.745 385.47C230.62 385.47 231.547 385.37 232.525 385.172C233.503 384.973 234.404 384.709 235.228 384.378V393.709C234.353 394.04 233.195 394.338 231.753 394.603C230.311 394.868 228.844 395 227.351 395ZM220.324 367.501C225.009 367.501 228.432 365.78 230.595 362.339C232.808 358.831 233.915 353.471 233.915 346.257C233.915 338.249 232.808 332.623 230.595 329.38C228.432 326.071 225.009 324.416 220.324 324.416C215.639 324.416 212.189 326.071 209.975 329.38C207.813 332.623 206.732 338.249 206.732 346.257C206.732 353.471 207.813 358.831 209.975 362.339C212.189 365.78 215.639 367.501 220.324 367.501Z" fill="#3276AE"/>
<path d="M271.307 378.918C264.46 378.918 259.029 376.8 255.013 372.564C251.049 368.262 249.067 362.041 249.067 353.901V313.993H259.492V352.908C259.492 357.805 260.522 361.479 262.581 363.927C264.64 366.31 267.549 367.501 271.307 367.501C275.066 367.501 277.949 366.31 279.957 363.927C282.016 361.479 283.046 357.805 283.046 352.908V313.993H293.471V353.901C293.471 362.041 291.489 368.262 287.525 372.564C283.56 376.8 278.155 378.918 271.307 378.918Z" fill="#3276AE"/>
<path d="M299.55 377.925V313.993H335.228V324.416H309.975V340.797H332.37V351.121H309.975V367.6H335.228V377.925H299.55Z" fill="#3276AE"/>
<path d="M340.144 377.925V313.993H349.179L372.733 356.581V313.993H383.159V377.925H374.123L350.569 335.337V377.925H340.144Z" fill="#3276AE"/>
<path d="M401.839 377.925V324.317H386.549V313.993H427.478V324.317H412.265V377.925H401.839Z" fill="#3276AE"/>
<path d="M457.764 377.925V324.317H442.474V313.993H483.403V324.317H468.19V377.925H457.764Z" fill="#3276AE"/>
<path d="M478.73 377.925L497.728 313.993H509.157L528.077 377.925H517.266L512.555 362.538H494.253L489.619 377.925H478.73ZM495.797 352.213H511.01L503.365 326.501L495.797 352.213Z" fill="#3276AE"/>
<path d="M529.129 377.925L547.122 345.86L529.592 313.993H541.871L553.378 335.337L564.884 313.993H577.163L559.633 345.86L577.626 377.925H565.193L553.378 356.581L541.562 377.925H529.129Z" fill="#3276AE"/>
<path d="M597.232 377.925V313.993H607.734L622.33 352.412L636.926 313.993H647.351V377.925H636.926V336.329L625.342 366.906H619.318L607.657 336.329V377.925H597.232Z" fill="#3276AE"/>
<path d="M652.27 377.925L671.267 313.993H682.697L701.617 377.925H690.805L686.095 362.538H667.792L663.159 377.925H652.27ZM669.337 352.213H684.55L676.905 326.501L669.337 352.213Z" fill="#3276AE"/>
<path d="M706.551 377.925V313.993H715.586L739.14 356.581V313.993H749.565V377.925H740.53L716.976 335.337V377.925H706.551Z" fill="#3276AE"/>
<path d="M754.5 377.925L773.497 313.993H784.927L803.847 377.925H793.035L788.324 362.538H770.022L765.389 377.925H754.5ZM771.567 352.213H786.78L779.135 326.501L771.567 352.213Z" fill="#3276AE"/>
<path d="M828.497 378.918C820.157 378.918 813.825 376.105 809.5 370.479C805.175 364.854 803.013 357.044 803.013 347.051C803.013 336.462 805.201 328.156 809.577 322.133C813.953 316.044 820.466 313 829.115 313C832.101 313 834.804 313.232 837.224 313.695C839.644 314.092 841.934 314.754 844.097 315.68V327.196C841.934 326.203 839.644 325.508 837.224 325.111C834.856 324.648 832.41 324.416 829.887 324.416C823.967 324.416 819.771 326.303 817.3 330.075C814.828 333.781 813.593 339.44 813.593 347.051C813.593 360.751 818.612 367.6 828.652 367.6C830.402 367.6 832.101 367.435 833.749 367.104C835.448 366.707 836.941 366.211 838.228 365.615V350.724H826.644V342.186H847.031V373.458C845.332 374.847 842.964 376.105 839.927 377.23C836.889 378.355 833.079 378.918 828.497 378.918Z" fill="#3276AE"/>
<path d="M851.939 377.925V313.993H887.617V324.416H862.365V340.797H884.76V351.121H862.365V367.6H887.617V377.925H851.939Z" fill="#3276AE"/>
<path d="M892.534 377.925V313.993H916.397C922.111 313.993 926.307 315.945 928.984 319.85C931.661 323.688 933 328.884 933 335.436C933 339.738 932.125 343.444 930.374 346.554C928.675 349.665 926.256 351.915 923.115 353.305C923.939 354.165 924.582 355.092 925.046 356.085C925.561 357.077 926.075 358.401 926.59 360.056L932.614 377.925H921.802L915.933 360.751C915.418 359.295 914.852 358.269 914.234 357.673C913.616 357.077 912.587 356.78 911.145 356.78H902.959V377.925H892.534ZM902.959 345.661H913.694C916.422 345.661 918.559 344.9 920.103 343.378C921.648 341.789 922.42 339.142 922.42 335.436C922.42 331.862 921.751 329.248 920.412 327.593C919.074 325.939 917.04 325.111 914.311 325.111H902.959V345.661Z" fill="#3276AE"/>
<path d="M4 0H58L104 133L58 258H4L51 133L4 0Z" fill="#A9EFFF"/>
</g>
<defs>
<filter id="filter0_d_79_39" x="0" y="0" width="937" height="403" filterUnits="userSpaceOnUse" color-interpolation-filters="sRGB">
<feFlood flood-opacity="0" result="BackgroundImageFix"/>
<feColorMatrix in="SourceAlpha" type="matrix" values="0 0 0 0 0 0 0 0 0 0 0 0 0 0 0 0 0 0 127 0" result="hardAlpha"/>
<feOffset dy="4"/>
<feGaussianBlur stdDeviation="2"/>
<feComposite in2="hardAlpha" operator="out"/>
<feColorMatrix type="matrix" values="0 0 0 0 0 0 0 0 0 0 0 0 0 0 0 0 0 0 0.25 0"/>
<feBlend mode="normal" in2="BackgroundImageFix" result="effect1_dropShadow_79_39"/>
<feBlend mode="normal" in="SourceGraphic" in2="effect1_dropShadow_79_39" result="shape"/>
</filter>
<linearGradient id="paint0_linear_79_39" x1="932.856" y1="129" x2="-230" y2="129" gradientUnits="userSpaceOnUse">
<stop stop-color="#0D4472"/>
<stop offset="1" stop-color="#47E3FF"/>
</linearGradient>
<linearGradient id="paint1_linear_79_39" x1="932.856" y1="129" x2="-230" y2="129" gradientUnits="userSpaceOnUse">
<stop stop-color="#0D4472"/>
<stop offset="1" stop-color="#47E3FF"/>
</linearGradient>
<linearGradient id="paint2_linear_79_39" x1="932.856" y1="129" x2="-230" y2="129" gradientUnits="userSpaceOnUse">
<stop stop-color="#0D4472"/>
<stop offset="1" stop-color="#47E3FF"/>
</linearGradient>
<linearGradient id="paint3_linear_79_39" x1="932.856" y1="129" x2="-230" y2="129" gradientUnits="userSpaceOnUse">
<stop stop-color="#0D4472"/>
<stop offset="1" stop-color="#47E3FF"/>
</linearGradient>
</defs>
</svg>
