<svg width="1196" height="388" viewBox="0 0 1196 388" fill="none" xmlns="http://www.w3.org/2000/svg">
<path d="M433.022 258V0.0779786H548.367C574.8 0.0779786 597.361 4.48349 616.051 13.2945C634.741 21.8385 649.026 35.7225 658.905 54.9465C668.784 73.9035 673.723 99.135 673.723 130.641C673.723 174.963 662.909 207.27 641.282 227.562C619.655 247.854 588.684 258 548.367 258H433.022ZM508.316 200.328H538.755C551.304 200.328 561.85 198.592 570.394 195.121C578.938 191.383 585.479 184.575 590.018 174.696C594.557 164.55 596.827 149.865 596.827 130.641C596.827 111.417 594.691 96.5985 590.419 86.1855C586.414 75.5055 580.14 68.163 571.596 64.158C563.052 59.886 552.105 57.75 538.755 57.75H508.316V200.328Z" fill="url(#paint0_linear_72_15)"/>
<path d="M754.277 258V56.148H681.786V0.0779786H902.061V56.148H829.571V258H754.277Z" fill="url(#paint1_linear_72_15)"/>
<path d="M921.914 258V0.0779786H995.206L1059.29 131.042L1122.97 0.0779786H1195.86V258H1120.56V129.039L1079.31 213.945H1038.86L997.208 129.039V258H921.914Z" fill="url(#paint2_linear_72_15)"/>
<path d="M33 0H434L481.5 131.042L434 258H33L85 128L33 0Z" fill="url(#paint3_linear_72_15)"/>
<path d="M0 370.925V306.993H26.8435C36.4541 306.993 43.6786 309.475 48.5171 314.438C53.4218 319.336 55.8742 327.609 55.8742 339.257C55.8742 350.243 53.455 358.284 48.6165 363.38C43.8443 368.41 36.5867 370.925 26.8435 370.925H0ZM13.4217 360.6H24.9545C28.7325 360.6 31.9139 360.038 34.4988 358.913C37.0838 357.722 39.0059 355.604 40.2652 352.559C41.5908 349.449 42.2536 345.015 42.2536 339.257C42.2536 333.499 41.6571 329.098 40.464 326.053C39.271 323.009 37.4152 320.924 34.8965 319.799C32.3779 318.674 29.0639 318.111 24.9545 318.111H13.4217V360.6Z" fill="#313131"/>
<path d="M62.2619 370.925V306.993H108.194V317.416H75.6837V333.797H104.516V344.121H75.6837V360.6H108.194V370.925H62.2619Z" fill="#313131"/>
<path d="M114.524 370.925V306.993H127.945V360.6H159.462V370.925H114.524Z" fill="#313131"/>
<path d="M163.873 370.925V306.993H177.294V370.925H163.873Z" fill="#313131"/>
<path d="M185.648 370.925V306.993H197.28L227.603 349.581V306.993H241.025V370.925H229.393L199.07 328.337V370.925H185.648Z" fill="#313131"/>
<path d="M287.544 388C282.241 388 278.331 386.577 275.812 383.731C273.293 380.885 271.968 376.815 271.835 371.521C255.53 369.337 247.378 358.582 247.378 339.257C247.378 327.542 249.996 319.071 255.232 313.843C260.468 308.614 268.223 306 278.496 306C288.77 306 296.525 308.614 301.761 313.843C306.997 319.071 309.615 327.542 309.615 339.257C309.615 359.31 300.833 370.131 283.268 371.719C283.401 374.366 284.031 376.153 285.157 377.08C286.351 378.006 288.173 378.47 290.626 378.47C291.752 378.47 292.945 378.37 294.205 378.172C295.464 377.973 296.624 377.709 297.684 377.378V386.709C296.558 387.04 295.066 387.338 293.211 387.603C291.355 387.868 289.466 388 287.544 388ZM278.496 360.501C284.528 360.501 288.935 358.78 291.719 355.339C294.569 351.831 295.994 346.471 295.994 339.257C295.994 331.249 294.569 325.623 291.719 322.38C288.935 319.071 284.528 317.416 278.496 317.416C272.465 317.416 268.024 319.071 265.174 322.38C262.39 325.623 260.998 331.249 260.998 339.257C260.998 346.471 262.39 351.831 265.174 355.339C268.024 358.78 272.465 360.501 278.496 360.501Z" fill="#313131"/>
<path d="M344.133 371.918C335.318 371.918 328.325 369.8 323.155 365.564C318.052 361.262 315.5 355.041 315.5 346.901V306.993H328.922V345.908C328.922 350.805 330.247 354.479 332.899 356.927C335.55 359.31 339.295 360.501 344.133 360.501C348.972 360.501 352.683 359.31 355.268 356.927C357.919 354.479 359.245 350.805 359.245 345.908V306.993H372.667V346.901C372.667 355.041 370.115 361.262 365.011 365.564C359.908 369.8 352.948 371.918 344.133 371.918Z" fill="#313131"/>
<path d="M380.492 370.925V306.993H426.424V317.416H393.914V333.797H422.746V344.121H393.914V360.6H426.424V370.925H380.492Z" fill="#313131"/>
<path d="M432.754 370.925V306.993H444.386L474.709 349.581V306.993H488.131V370.925H476.499L446.176 328.337V370.925H432.754Z" fill="#313131"/>
<path d="M512.18 370.925V317.317H492.495V306.993H545.188V317.317H525.602V370.925H512.18Z" fill="#313131"/>
<path d="M584.179 370.925V317.317H564.493V306.993H617.186V317.317H597.6V370.925H584.179Z" fill="#313131"/>
<path d="M611.17 370.925L635.628 306.993H650.342L674.7 370.925H660.781L654.717 355.538H631.154L625.189 370.925H611.17ZM633.142 345.213H652.728L642.886 319.501L633.142 345.213Z" fill="#313131"/>
<path d="M676.054 370.925L699.219 338.86L676.65 306.993H692.458L707.272 328.337L722.085 306.993H737.893L715.325 338.86L738.49 370.925H722.483L707.272 349.581L692.06 370.925H676.054Z" fill="#313131"/>
<path d="M763.73 370.925V306.993H777.251L796.042 345.412L814.832 306.993H828.254V370.925H814.832V329.329L799.919 359.906H792.164L777.152 329.329V370.925H763.73Z" fill="#313131"/>
<path d="M834.586 370.925L859.044 306.993H873.758L898.116 370.925H884.197L878.132 355.538H854.57L848.605 370.925H834.586ZM856.558 345.213H876.144L866.301 319.501L856.558 345.213Z" fill="#313131"/>
<path d="M904.468 370.925V306.993H916.1L946.423 349.581V306.993H959.845V370.925H948.213L917.89 328.337V370.925H904.468Z" fill="#313131"/>
<path d="M966.198 370.925L990.655 306.993H1005.37L1029.73 370.925H1015.81L1009.74 355.538H986.181L980.216 370.925H966.198ZM988.17 345.213H1007.76L997.913 319.501L988.17 345.213Z" fill="#313131"/>
<path d="M1061.46 371.918C1050.73 371.918 1042.57 369.105 1037.01 363.479C1031.44 357.854 1028.65 350.044 1028.65 340.051C1028.65 329.462 1031.47 321.156 1037.1 315.133C1042.74 309.044 1051.12 306 1062.26 306C1066.1 306 1069.58 306.232 1072.7 306.695C1075.81 307.092 1078.76 307.754 1081.55 308.68V320.196C1078.76 319.203 1075.81 318.508 1072.7 318.111C1069.65 317.648 1066.5 317.416 1063.25 317.416C1055.63 317.416 1050.23 319.303 1047.05 323.075C1043.87 326.781 1042.27 332.44 1042.27 340.051C1042.27 353.751 1048.74 360.6 1061.66 360.6C1063.91 360.6 1066.1 360.435 1068.22 360.104C1070.41 359.707 1072.33 359.211 1073.99 358.615V343.724H1059.08V335.186H1085.32V366.458C1083.14 367.847 1080.09 369.105 1076.18 370.23C1072.27 371.355 1067.36 371.918 1061.46 371.918Z" fill="#313131"/>
<path d="M1091.64 370.925V306.993H1137.57V317.416H1105.06V333.797H1133.9V344.121H1105.06V360.6H1137.57V370.925H1091.64Z" fill="#313131"/>
<path d="M1143.9 370.925V306.993H1174.62C1181.98 306.993 1187.38 308.945 1190.83 312.85C1194.28 316.688 1196 321.884 1196 328.436C1196 332.738 1194.87 336.444 1192.62 339.554C1190.43 342.665 1187.32 344.915 1183.27 346.305C1184.33 347.165 1185.16 348.092 1185.76 349.085C1186.42 350.077 1187.09 351.401 1187.75 353.056L1195.5 370.925H1181.58L1174.03 353.751C1173.37 352.295 1172.64 351.269 1171.84 350.673C1171.05 350.077 1169.72 349.78 1167.86 349.78H1157.33V370.925H1143.9ZM1157.33 338.661H1171.14C1174.66 338.661 1177.41 337.9 1179.4 336.378C1181.39 334.789 1182.38 332.142 1182.38 328.436C1182.38 324.862 1181.52 322.248 1179.79 320.593C1178.07 318.939 1175.45 318.111 1171.94 318.111H1157.33V338.661Z" fill="#313131"/>
<path d="M135.724 114V68.92H146.994V86.42L162.534 68.92H175.414L159.314 87.33L176.394 114H164.354L152.314 94.54L146.994 100.35V114H135.724ZM182.14 114V68.92H215.39V77.6H193.41V87.05H212.8V95.87H193.41V105.32H215.39V114H182.14ZM220.763 114V68.92H230.423L249.603 95.87V68.92H260.943V114H251.213L232.033 87.12V114H220.763ZM289.138 114.7C281.811 114.7 276.235 112.833 272.408 109.1C268.581 105.367 266.668 99.5567 266.668 91.67C266.668 83.3167 268.581 77.32 272.408 73.68C276.235 70.04 281.811 68.22 289.138 68.22C296.465 68.22 302.041 70.04 305.868 73.68C309.695 77.32 311.608 83.3167 311.608 91.67C311.608 99.5567 309.695 105.367 305.868 109.1C302.041 112.833 296.465 114.7 289.138 114.7ZM289.138 105.11C292.918 105.11 295.671 104.037 297.398 101.89C299.171 99.6967 300.058 96.29 300.058 91.67C300.058 86.63 299.171 83.0833 297.398 81.03C295.671 78.93 292.918 77.88 289.138 77.88C285.311 77.88 282.511 78.93 280.738 81.03C279.011 83.0833 278.148 86.63 278.148 91.67C278.148 96.29 279.011 99.6967 280.738 101.89C282.511 104.037 285.311 105.11 289.138 105.11ZM331.705 114.7C328.718 114.7 325.918 114.467 323.305 114C320.738 113.58 318.522 112.95 316.655 112.11V102.52C318.708 103.407 320.972 104.13 323.445 104.69C325.965 105.25 328.345 105.53 330.585 105.53C333.385 105.53 335.462 105.273 336.815 104.76C338.215 104.247 338.915 103.127 338.915 101.4C338.915 100.233 338.565 99.3 337.865 98.6C337.212 97.9 336.115 97.2933 334.575 96.78C333.082 96.22 331.028 95.5667 328.415 94.82C325.335 93.8867 322.885 92.86 321.065 91.74C319.245 90.5733 317.938 89.1733 317.145 87.54C316.352 85.9067 315.955 83.9 315.955 81.52C315.955 77.2267 317.495 73.9367 320.575 71.65C323.655 69.3633 328.205 68.22 334.225 68.22C336.838 68.22 339.382 68.43 341.855 68.85C344.328 69.2233 346.335 69.6667 347.875 70.18V79.84C345.868 79.0467 343.838 78.4633 341.785 78.09C339.778 77.7167 337.818 77.53 335.905 77.53C333.385 77.53 331.332 77.7633 329.745 78.23C328.205 78.6967 327.435 79.77 327.435 81.45C327.435 82.43 327.715 83.2233 328.275 83.83C328.835 84.39 329.792 84.9033 331.145 85.37C332.545 85.8367 334.435 86.3967 336.815 87.05C340.502 88.03 343.325 89.22 345.285 90.62C347.245 91.9733 348.598 93.56 349.345 95.38C350.092 97.1533 350.465 99.16 350.465 101.4C350.465 105.367 348.925 108.587 345.845 111.06C342.765 113.487 338.052 114.7 331.705 114.7ZM356.183 114V68.92H367.453V86.77H385.093V68.92H396.363V114H385.093V96.15H367.453V114H356.183ZM402.088 114L419.308 68.92H431.488L448.708 114H436.948L432.888 103.78H417.838L413.848 114H402.088ZM419.378 95.45H431.348L425.328 79.77L419.378 95.45Z" fill="#D7D7D7"/>
<path d="M176.744 185.7C168.857 185.7 162.837 183.693 158.684 179.68C154.577 175.62 152.524 169.997 152.524 162.81C152.524 155.297 154.53 149.487 158.544 145.38C162.604 141.273 168.647 139.22 176.674 139.22C179.427 139.22 181.877 139.43 184.024 139.85C186.217 140.27 188.317 140.83 190.324 141.53V151.4C186.264 149.72 181.994 148.88 177.514 148.88C172.847 148.88 169.417 150 167.224 152.24C165.077 154.48 164.004 158.003 164.004 162.81C164.004 167.383 165.147 170.743 167.434 172.89C169.72 175.037 173.127 176.11 177.654 176.11C179.847 176.11 182.017 175.923 184.164 175.55C186.31 175.13 188.387 174.5 190.394 173.66V183.6C188.434 184.253 186.357 184.767 184.164 185.14C181.97 185.513 179.497 185.7 176.744 185.7ZM216.488 185.7C209.161 185.7 203.584 183.833 199.758 180.1C195.931 176.367 194.018 170.557 194.018 162.67C194.018 154.317 195.931 148.32 199.758 144.68C203.584 141.04 209.161 139.22 216.488 139.22C223.814 139.22 229.391 141.04 233.218 144.68C237.044 148.32 238.958 154.317 238.958 162.67C238.958 170.557 237.044 176.367 233.218 180.1C229.391 183.833 223.814 185.7 216.488 185.7ZM216.488 176.11C220.268 176.11 223.021 175.037 224.748 172.89C226.521 170.697 227.408 167.29 227.408 162.67C227.408 157.63 226.521 154.083 224.748 152.03C223.021 149.93 220.268 148.88 216.488 148.88C212.661 148.88 209.861 149.93 208.088 152.03C206.361 154.083 205.498 157.63 205.498 162.67C205.498 167.29 206.361 170.697 208.088 172.89C209.861 175.037 212.661 176.11 216.488 176.11ZM265.075 185.7C260.875 185.7 257.211 185.023 254.085 183.67C251.005 182.317 248.601 180.31 246.875 177.65C245.195 174.99 244.355 171.723 244.355 167.85V139.92H255.625V166.8C255.625 169.927 256.441 172.26 258.075 173.8C259.708 175.34 262.041 176.11 265.075 176.11C268.108 176.11 270.441 175.34 272.075 173.8C273.708 172.26 274.525 169.927 274.525 166.8V139.92H285.795V167.85C285.795 171.723 284.931 174.99 283.205 177.65C281.525 180.31 279.121 182.317 275.995 183.67C272.915 185.023 269.275 185.7 265.075 185.7ZM292.556 185V139.92H302.216L321.396 166.87V139.92H332.736V185H323.006L303.826 158.12V185H292.556ZM350.291 185V148.6H337.061V139.92H374.791V148.6H361.561V185H350.291ZM392.468 185V168.41L376.298 139.92H388.058L398.138 158.61L408.218 139.92H419.978L403.808 168.41V185H392.468Z" fill="#D7D7D7"/>
<path d="M0 82.8023V0L61 128.243L0 258V189.84L27.5 128.243L0 82.8023Z" fill="#737373"/>
<defs>
<linearGradient id="paint0_linear_72_15" x1="1195.86" y1="129" x2="33" y2="129" gradientUnits="userSpaceOnUse">
<stop stop-color="#2F2F2F"/>
<stop offset="1" stop-color="#6E6E6E"/>
</linearGradient>
<linearGradient id="paint1_linear_72_15" x1="1195.86" y1="129" x2="33" y2="129" gradientUnits="userSpaceOnUse">
<stop stop-color="#2F2F2F"/>
<stop offset="1" stop-color="#6E6E6E"/>
</linearGradient>
<linearGradient id="paint2_linear_72_15" x1="1195.86" y1="129" x2="33" y2="129" gradientUnits="userSpaceOnUse">
<stop stop-color="#2F2F2F"/>
<stop offset="1" stop-color="#6E6E6E"/>
</linearGradient>
<linearGradient id="paint3_linear_72_15" x1="1195.86" y1="129" x2="33" y2="129" gradientUnits="userSpaceOnUse">
<stop stop-color="#2F2F2F"/>
<stop offset="1" stop-color="#6E6E6E"/>
</linearGradient>
</defs>
</svg>
