<svg width="830" height="313" viewBox="0 0 830 313" fill="none" xmlns="http://www.w3.org/2000/svg">
<path d="M51 0.242144C84.6188 0.200894 118.237 0.159644 152.875 0.117144C163.466 0.0989355 174.057 0.0807275 184.968 0.0619677C197.963 0.0529345 197.963 0.0529345 204.059 0.0512561C208.29 0.0494029 212.52 0.0419485 216.751 0.0309924C222.168 0.0171546 227.584 0.0131831 233.001 0.015999C234.976 0.0154112 236.952 0.0115168 238.927 0.00371327C266.643 -0.100578 297.29 1.86892 318.625 21.6796C319.801 22.9481 319.801 22.9481 321 24.2421C321.706 24.9402 321.706 24.9402 322.426 25.6523C334.366 38.2097 337.154 56.9075 337.145 73.5571C337.15 74.9004 337.15 74.9004 337.155 76.2708C337.165 79.2118 337.167 82.1527 337.168 85.0937C337.171 87.1562 337.175 89.2188 337.178 91.2813C337.184 95.6001 337.186 99.9189 337.185 104.238C337.185 109.738 337.199 115.238 337.216 120.739C337.227 124.999 337.229 129.26 337.229 133.52C337.23 135.546 337.234 137.572 337.242 139.598C337.319 161.55 336.102 183.398 320.855 200.672C303.715 217.557 279.605 218.857 256.935 218.696C254.676 218.695 252.417 218.696 250.159 218.698C244.083 218.699 238.008 218.676 231.933 218.648C225.563 218.623 219.193 218.62 212.823 218.616C202.149 218.605 191.476 218.58 180.803 218.544C169.819 218.507 158.835 218.479 147.851 218.462C146.821 218.46 146.821 218.46 145.771 218.459C139.801 218.449 133.83 218.441 127.859 218.432C102.239 218.395 76.6199 218.315 51 218.242C51 146.302 51 74.3621 51 0.242144ZM117 54.2421C117 90.8721 117 127.502 117 165.242C139.628 165.332 139.628 165.332 162.256 165.393C170.352 165.409 178.448 165.431 186.543 165.468C192.956 165.498 199.368 165.518 205.78 165.524C209.171 165.528 212.561 165.537 215.952 165.559C219.75 165.581 223.548 165.584 227.347 165.583C228.454 165.594 229.561 165.604 230.701 165.615C242.172 165.57 253.105 163.666 261.715 155.644C267.866 149.042 270.107 140.955 270.145 132.044C270.152 131.032 270.158 130.021 270.165 128.978C270.166 127.895 270.167 126.811 270.168 125.695C270.171 124.569 270.175 123.444 270.178 122.284C270.183 119.903 270.185 117.523 270.185 115.143C270.187 111.519 270.206 107.897 270.225 104.273C270.228 101.956 270.23 99.638 270.23 97.3203C270.241 95.7073 270.241 95.7073 270.252 94.0618C270.218 82.7195 268.441 72.824 260.215 64.4179C244.616 51.7022 221.943 53.9627 203.133 54.0468C200.923 54.0498 198.713 54.0518 196.504 54.0529C188.377 54.0634 180.251 54.0913 172.125 54.1171C153.934 54.1584 135.743 54.1996 117 54.2421Z" fill="#313131"/>
<path d="M757 0.242188C780.76 0.242188 804.52 0.242188 829 0.242188C829 72.1822 829 144.122 829 218.242C807.55 218.242 785.6 218.242 763.5 218.242C763.17 182.602 763.34 146.962 763 110.242C758.05 118.822 753.1 127.402 748 136.242C741 148.242 741 148.242 737.531 154.18C733.832 160.521 730.164 166.881 726.5 173.242C721.476 181.961 716.439 190.671 711.375 199.367C710.807 200.344 710.239 201.321 709.654 202.328C708.847 203.713 708.847 203.713 708.023 205.125C707.559 205.923 707.094 206.721 706.615 207.543C706.082 208.434 705.549 209.325 705 210.242C704.685 210.916 702.825 213.806 702.5 214.5C698.955 220.216 701 217 700.239 218.242C698.494 218.242 695.5 218.242 692.5 218.242C691.353 218.242 690 218.242 687 218.242C684 218.242 682.074 218.225 679 218.242C677.964 218.252 676.067 218.233 675 218.242C658.345 218.179 663 218.242 656 218.242C653.5 215 657 220.5 643 197.5C639.956 192.5 637.218 187.307 634.163 182.232C632.422 179.314 630.754 176.355 629.078 173.398C628.399 172.207 627.72 171.015 627.041 169.824C626.02 168.033 625 166.242 623.979 164.451C621.612 160.297 619.244 156.144 616.875 151.992C616.547 151.417 616.218 150.841 615.88 150.248C610.428 140.696 604.91 131.185 599.339 121.702C598.797 120.777 598.254 119.852 597.695 118.898C596.984 117.689 596.984 117.689 596.258 116.455C595.102 114.422 594.046 112.334 593 110.242C592.67 145.882 592.34 181.522 592 218.242C570.22 218.242 548.44 218.242 526 218.242C525.96 184.177 525.96 184.177 525.951 169.947C525.945 160.106 525.938 150.264 525.925 140.423C525.915 133.257 525.908 126.091 525.906 118.925C525.905 115.128 525.902 111.331 525.894 107.535C525.888 103.965 525.885 100.395 525.887 96.8259C525.886 94.883 525.881 92.9402 525.876 90.9973C525.877 89.8516 525.878 88.7059 525.88 87.5255C525.879 86.5235 525.878 85.5215 525.877 84.4892C526 82.2422 526 82.2422 527 81.2422C528.556 81.1463 530.117 81.1203 531.676 81.1219C532.687 81.1206 533.698 81.1192 534.74 81.1178C536.417 81.1232 536.418 81.1232 538.129 81.1287C539.3 81.1285 540.47 81.1284 541.676 81.1282C544.895 81.1288 548.114 81.1338 551.333 81.1408C554.693 81.147 558.054 81.1476 561.415 81.1488C567.782 81.1519 574.15 81.1601 580.518 81.1702C587.766 81.1813 595.013 81.1868 602.261 81.1919C617.174 81.2023 632.087 81.2199 647 81.2422C647.62 82.363 647.62 82.363 648.253 83.5065C658.863 102.721 658.863 102.721 669.812 121.742C670.396 122.74 670.979 123.738 671.58 124.766C673.657 128.31 675.721 131.823 678 135.242C678.411 134.52 678.823 133.797 679.247 133.053C688.177 117.376 697.171 101.739 706.287 86.1689C709.174 81.2371 712.056 76.3026 714.938 71.3672C715.513 70.382 716.088 69.3969 716.68 68.3818C720.976 61.015 725.243 53.6314 729.5 46.2422C734.512 37.5495 739.525 28.8576 744.562 20.1797C745.402 18.7266 745.402 18.7266 746.258 17.2441C746.793 16.3244 747.328 15.4046 747.879 14.457C748.568 13.2678 748.568 13.2678 749.272 12.0544C751.735 8.04567 754.39 4.1572 757 0.242188Z" fill="#313131"/>
<path d="M318 1.24219L320.055 2.66797C333.034 11.3506 340.979 18.3161 347.5 32.2422C351.012 39.7422 351.85 48.3022 353.5 54.2422H406V218.242H473V54.2422C499.025 54.6609 525.041 55.1192 551.067 55.3351C557.126 55.3842 563.184 55.4337 569.242 55.4869L571.352 55.5056C582.51 55.6034 593.666 55.7657 604.823 55.9773C615.661 56.183 626.498 56.3264 637.338 56.3897C643.804 56.4169 650.269 56.4299 656.733 56.5742C672.134 56.9762 690.5 56.5742 704.5 56.5742C704.806 56.4058 705.605 53.8994 705.896 53.7196L735.997 0.242188H318V1.24219Z" fill="#313131"/>
<path d="M0 0.242188H80V218.242H0L45.5 106.242L0 0.242188Z" fill="#313131"/>
<path d="M0.345703 301.755V259.654H18.4238C22.6571 259.654 26.2209 260.373 29.1151 261.811C32.0094 263.206 34.2124 265.472 35.7243 268.61C37.2362 271.705 37.9922 275.823 37.9922 280.966C37.9922 288.201 36.3291 293.475 33.0029 296.787C29.7199 300.099 24.8602 301.755 18.4238 301.755H0.345703ZM10.7779 293.649H16.9983C19.2445 293.649 21.1236 293.322 22.6355 292.668C24.1906 291.971 25.357 290.707 26.1345 288.877C26.9553 287.046 27.3656 284.409 27.3656 280.966C27.3656 277.479 26.9985 274.799 26.2641 272.925C25.5729 271.007 24.4498 269.678 22.8947 268.937C21.3828 268.153 19.4173 267.76 16.9983 267.76H10.7779V293.649Z" fill="#313131"/>
<path d="M43.311 301.755V259.654H74.0891V267.76H53.7432V276.586H71.6917V284.823H53.7432V293.649H74.0891V301.755H43.311Z" fill="#313131"/>
<path d="M79.0627 301.755V259.654H89.4949V293.649H109.193V301.755H79.0627Z" fill="#313131"/>
<path d="M113.232 301.755V259.654H123.665V301.755H113.232Z" fill="#313131"/>
<path d="M130.254 301.755V259.654H139.196L156.95 284.823V259.654H167.447V301.755H158.44L140.686 276.651V301.755H130.254Z" fill="#313131"/>
<path d="M200.673 313C197.736 313 195.425 312.586 193.74 311.758C192.098 310.973 190.954 309.775 190.306 308.162C189.658 306.55 189.312 304.545 189.269 302.148C183.869 301.494 179.766 299.446 176.958 296.002C174.15 292.516 172.746 287.482 172.746 280.901C172.746 273.099 174.517 267.499 178.059 264.099C181.602 260.7 186.764 259 193.546 259C200.328 259 205.49 260.7 209.032 264.099C212.574 267.499 214.345 273.099 214.345 280.901C214.345 287.351 212.984 292.298 210.263 295.741C207.585 299.184 203.675 301.276 198.535 302.017C198.535 303.412 198.772 304.37 199.248 304.893C199.766 305.46 200.63 305.743 201.839 305.743C203.179 305.743 204.539 305.569 205.922 305.22V312.346C205.274 312.521 204.41 312.673 203.33 312.804C202.293 312.935 201.408 313 200.673 313ZM193.546 293.453C197.045 293.453 199.593 292.45 201.192 290.446C202.833 288.397 203.654 285.215 203.654 280.901C203.654 276.194 202.833 272.881 201.192 270.964C199.593 269.002 197.045 268.022 193.546 268.022C190.003 268.022 187.412 269.002 185.77 270.964C184.172 272.881 183.373 276.194 183.373 280.901C183.373 285.215 184.172 288.397 185.77 290.446C187.412 292.45 190.003 293.453 193.546 293.453Z" fill="#313131"/>
<path d="M238.521 302.409C234.633 302.409 231.242 301.777 228.348 300.513C225.497 299.249 223.272 297.375 221.674 294.891C220.119 292.407 219.341 289.356 219.341 285.738V259.654H229.773V284.758C229.773 287.678 230.529 289.857 232.041 291.295C233.553 292.734 235.713 293.453 238.521 293.453C241.328 293.453 243.488 292.734 245 291.295C246.512 289.857 247.268 287.678 247.268 284.758V259.654H257.7V285.738C257.7 289.356 256.901 292.407 255.303 294.891C253.748 297.375 251.523 299.249 248.629 300.513C245.778 301.777 242.408 302.409 238.521 302.409Z" fill="#313131"/>
<path d="M263.959 301.755V259.654H294.737V267.76H274.391V276.586H292.34V284.823H274.391V293.649H294.737V301.755H263.959Z" fill="#313131"/>
<path d="M299.711 301.755V259.654H308.653L326.407 284.823V259.654H336.904V301.755H327.897L310.143 276.651V301.755H299.711Z" fill="#313131"/>
<path d="M353.153 301.755V267.76H340.907V259.654H375.832V267.76H363.585V301.755H353.153Z" fill="#313131"/>
<path d="M404.092 301.755V267.76H391.845V259.654H426.77V267.76H414.524V301.755H404.092Z" fill="#313131"/>
<path d="M424.653 301.755L440.593 259.654H451.868L467.807 301.755H456.922L453.163 292.211H439.232L435.539 301.755H424.653ZM440.658 284.431H451.738L446.165 269.787L440.658 284.431Z" fill="#313131"/>
<path d="M469.833 301.755L485.06 280.574L470.287 259.654H482.728L491.345 272.206L500.028 259.654H512.469L497.695 280.574L512.923 301.755H500.352L491.345 289.007L482.404 301.755H469.833Z" fill="#313131"/>
<path d="M532.128 301.755V259.654H542.431L553.77 282.993L565.045 259.654H575.283V301.755H564.85V277.567L556.621 294.564H550.855L542.561 277.567V301.755H532.128Z" fill="#313131"/>
<path d="M580.569 301.755L596.508 259.654H607.783L623.723 301.755H612.837L609.079 292.211H595.148L591.454 301.755H580.569ZM596.573 284.431H607.653L602.081 269.787L596.573 284.431Z" fill="#313131"/>
<path d="M629.006 301.755V259.654H637.948L655.702 284.823V259.654H666.199V301.755H657.192L639.438 276.651V301.755H629.006Z" fill="#313131"/>
<path d="M671.498 301.755L687.438 259.654H698.712L714.652 301.755H703.767L700.008 292.211H686.077L682.384 301.755H671.498ZM687.503 284.431H698.583L693.01 269.787L687.503 284.431Z" fill="#313131"/>
<path d="M737.192 302.409C729.978 302.409 724.492 300.579 720.733 296.918C716.975 293.213 715.096 288.005 715.096 281.293C715.096 274.276 717.018 268.806 720.863 264.884C724.708 260.961 730.366 259 737.84 259C740.388 259 742.678 259.153 744.708 259.458C746.781 259.763 748.747 260.22 750.604 260.831V269.852C748.747 269.155 746.803 268.676 744.773 268.414C742.786 268.153 740.734 268.022 738.617 268.022C734.125 268.022 730.842 269.111 728.768 271.291C726.738 273.426 725.723 276.76 725.723 281.293C725.723 285.433 726.695 288.506 728.639 290.511C730.582 292.472 733.455 293.453 737.256 293.453C739.762 293.453 742.095 293.104 744.254 292.407V284.431H735.248V277.828H753.002V298.683C751.533 299.642 749.481 300.513 746.846 301.298C744.254 302.039 741.036 302.409 737.192 302.409Z" fill="#313131"/>
<path d="M758.345 301.755V259.654H789.123V267.76H768.777V276.586H786.726V284.823H768.777V293.649H789.123V301.755H758.345Z" fill="#313131"/>
<path d="M794.097 301.755V259.654H814.961C819.885 259.654 823.514 260.961 825.847 263.576C828.179 266.191 829.346 269.7 829.346 274.102C829.346 276.935 828.633 279.419 827.207 281.554C825.782 283.69 823.838 285.281 821.376 286.327C821.981 286.806 822.456 287.351 822.801 287.961C823.19 288.528 823.6 289.334 824.032 290.38L828.957 301.755H818.071L813.406 291.034C813.017 290.119 812.52 289.465 811.916 289.073C811.311 288.637 810.447 288.419 809.324 288.419H804.529V301.755H794.097ZM804.529 280.312H812.24C814.27 280.312 815.847 279.811 816.97 278.809C818.136 277.763 818.719 276.194 818.719 274.102C818.719 269.874 816.711 267.76 812.693 267.76H804.529V280.312Z" fill="#313131"/>
<path d="M143 80H221C232.046 80 241 88.9543 241 100V121C241 132.046 232.046 141 221 141H143V80Z" fill="#818181"/>
</svg>
