<svg width="1427" height="414" viewBox="0 0 1427 414" fill="none" xmlns="http://www.w3.org/2000/svg">
<path d="M432.022 258V0.0779786H547.367C573.8 0.0779786 596.361 4.48349 615.051 13.2945C633.741 21.8385 648.026 35.7225 657.905 54.9465C667.784 73.9035 672.723 99.135 672.723 130.641C672.723 174.963 661.909 207.27 640.282 227.562C618.655 247.854 587.684 258 547.367 258H432.022ZM507.316 200.328H537.755C550.304 200.328 560.85 198.592 569.394 195.121C577.938 191.383 584.479 184.575 589.018 174.696C593.557 164.55 595.827 149.865 595.827 130.641C595.827 111.417 593.691 96.5985 589.419 86.1855C585.414 75.5055 579.14 68.163 570.596 64.158C562.052 59.886 551.105 57.75 537.755 57.75H507.316V200.328Z" fill="url(#paint0_linear_72_15)"/>
<path d="M753.277 258V56.148H680.786V0.0779786H901.061V56.148H828.571V258H753.277Z" fill="url(#paint1_linear_72_15)"/>
<path d="M920.914 258V0.0779786H994.206L1058.29 131.042L1121.97 0.0779786H1194.86V258H1119.56V129.039L1078.31 213.945H1037.86L996.208 129.039V258H920.914Z" fill="url(#paint2_linear_72_15)"/>
<path d="M32 0H433L480.5 131.042L433 258H32L84 128L32 0Z" fill="url(#paint3_linear_72_15)"/>
<path d="M38.244 377V317.752H63.084C71.9773 317.752 78.6627 320.052 83.14 324.652C87.6787 329.191 89.948 336.857 89.948 347.652C89.948 357.833 87.7093 365.285 83.232 370.008C78.816 374.669 72.1 377 63.084 377H38.244ZM50.664 367.432H61.336C64.832 367.432 67.776 366.911 70.168 365.868C72.56 364.764 74.3387 362.801 75.504 359.98C76.7307 357.097 77.344 352.988 77.344 347.652C77.344 342.316 76.792 338.237 75.688 335.416C74.584 332.595 72.8667 330.663 70.536 329.62C68.2053 328.577 65.1387 328.056 61.336 328.056H50.664V367.432ZM98.619 377V317.752H141.123V327.412H111.039V342.592H137.719V352.16H111.039V367.432H141.123V377H98.619ZM149.74 377V317.752H162.16V367.432H191.324V377H149.74ZM198.166 377V317.752H210.586V377H198.166ZM221.076 377V317.752H231.84L259.9 357.22V317.752H272.32V377H261.556L233.496 337.532V377H221.076ZM318.127 392.824C313.22 392.824 309.601 391.505 307.271 388.868C304.94 386.231 303.713 382.459 303.591 377.552C288.503 375.528 280.959 365.561 280.959 347.652C280.959 336.796 283.381 328.945 288.227 324.1C293.072 319.255 300.248 316.832 309.755 316.832C319.261 316.832 326.437 319.255 331.283 324.1C336.128 328.945 338.551 336.796 338.551 347.652C338.551 366.236 330.424 376.264 314.171 377.736C314.293 380.189 314.876 381.845 315.919 382.704C317.023 383.563 318.709 383.992 320.979 383.992C322.021 383.992 323.125 383.9 324.291 383.716C325.456 383.532 326.529 383.287 327.511 382.98V391.628C326.468 391.935 325.088 392.211 323.371 392.456C321.653 392.701 319.905 392.824 318.127 392.824ZM309.755 367.34C315.336 367.34 319.415 365.745 321.991 362.556C324.628 359.305 325.947 354.337 325.947 347.652C325.947 340.231 324.628 335.017 321.991 332.012C319.415 328.945 315.336 327.412 309.755 327.412C304.173 327.412 300.064 328.945 297.427 332.012C294.851 335.017 293.563 340.231 293.563 347.652C293.563 354.337 294.851 359.305 297.427 362.556C300.064 365.745 304.173 367.34 309.755 367.34ZM373.253 377.92C365.095 377.92 358.625 375.957 353.841 372.032C349.118 368.045 346.757 362.28 346.757 354.736V317.752H359.177V353.816C359.177 358.355 360.403 361.759 362.857 364.028C365.31 366.236 368.775 367.34 373.253 367.34C377.73 367.34 381.165 366.236 383.557 364.028C386.01 361.759 387.237 358.355 387.237 353.816V317.752H399.657V354.736C399.657 362.28 397.295 368.045 392.573 372.032C387.85 375.957 381.41 377.92 373.253 377.92ZM409.658 377V317.752H452.162V327.412H422.078V342.592H448.758V352.16H422.078V367.432H452.162V377H409.658ZM460.779 377V317.752H471.543L499.603 357.22V317.752H512.023V377H501.259L473.199 337.532V377H460.779ZM537.038 377V327.32H518.822V317.752H567.582V327.32H549.458V377H537.038ZM609.182 377V327.32H590.966V317.752H639.726V327.32H621.602V377H609.182ZM636.92 377L659.552 317.752H673.168L695.708 377H682.828L677.216 362.74H655.412L649.892 377H636.92ZM657.252 353.172H675.376L666.268 329.344L657.252 353.172ZM699.72 377L721.156 347.284L700.272 317.752H714.9L728.608 337.532L742.316 317.752H756.944L736.06 347.284L757.496 377H742.684L728.608 357.22L714.532 377H699.72ZM786.373 377V317.752H798.885L816.273 353.356L833.661 317.752H846.081V377H833.661V338.452L819.861 366.788H812.685L798.793 338.452V377H786.373ZM854.701 377L877.333 317.752H890.949L913.489 377H900.609L894.997 362.74H873.193L867.673 377H854.701ZM875.033 353.172H893.157L884.049 329.344L875.033 353.172ZM922.127 377V317.752H932.891L960.951 357.22V317.752H973.371V377H962.607L934.547 337.532V377H922.127ZM982.009 377L1004.64 317.752H1018.26L1040.8 377H1027.92L1022.31 362.74H1000.5L994.981 377H982.009ZM1002.34 353.172H1020.47L1011.36 329.344L1002.34 353.172ZM1072.92 377.92C1062.99 377.92 1055.44 375.313 1050.29 370.1C1045.14 364.887 1042.56 357.649 1042.56 348.388C1042.56 338.575 1045.17 330.877 1050.38 325.296C1055.6 319.653 1063.36 316.832 1073.66 316.832C1077.22 316.832 1080.44 317.047 1083.32 317.476C1086.2 317.844 1088.93 318.457 1091.51 319.316V329.988C1088.93 329.068 1086.2 328.424 1083.32 328.056C1080.5 327.627 1077.59 327.412 1074.58 327.412C1067.53 327.412 1062.53 329.16 1059.58 332.656C1056.64 336.091 1055.17 341.335 1055.17 348.388C1055.17 361.084 1061.15 367.432 1073.11 367.432C1075.19 367.432 1077.22 367.279 1079.18 366.972C1081.2 366.604 1082.98 366.144 1084.52 365.592V351.792H1070.72V343.88H1095V372.86C1092.98 374.148 1090.16 375.313 1086.54 376.356C1082.92 377.399 1078.38 377.92 1072.92 377.92ZM1103.61 377V317.752H1146.12V327.412H1116.03V342.592H1142.71V352.16H1116.03V367.432H1146.12V377H1103.61ZM1154.73 377V317.752H1183.16C1189.97 317.752 1194.97 319.561 1198.16 323.18C1201.35 326.737 1202.94 331.552 1202.94 337.624C1202.94 341.611 1201.9 345.045 1199.81 347.928C1197.79 350.811 1194.91 352.896 1191.16 354.184C1192.15 354.981 1192.91 355.84 1193.46 356.76C1194.08 357.68 1194.69 358.907 1195.3 360.44L1202.48 377H1189.6L1182.61 361.084C1181.99 359.735 1181.32 358.784 1180.58 358.232C1179.85 357.68 1178.62 357.404 1176.9 357.404H1167.15V377H1154.73ZM1167.15 347.1H1179.94C1183.19 347.1 1185.74 346.395 1187.58 344.984C1189.42 343.512 1190.34 341.059 1190.34 337.624C1190.34 334.312 1189.54 331.889 1187.94 330.356C1186.35 328.823 1183.93 328.056 1180.68 328.056H1167.15V347.1Z" fill="#3B3B3B"/>
<path d="M134.724 112V66.92H145.994V84.42L161.534 66.92H174.414L158.314 85.33L175.394 112H163.354L151.314 92.54L145.994 98.35V112H134.724ZM181.14 112V66.92H214.39V75.6H192.41V85.05H211.8V93.87H192.41V103.32H214.39V112H181.14ZM219.763 112V66.92H229.423L248.603 93.87V66.92H259.943V112H250.213L231.033 85.12V112H219.763ZM288.138 112.7C280.811 112.7 275.235 110.833 271.408 107.1C267.581 103.367 265.668 97.5567 265.668 89.67C265.668 81.3167 267.581 75.32 271.408 71.68C275.235 68.04 280.811 66.22 288.138 66.22C295.465 66.22 301.041 68.04 304.868 71.68C308.695 75.32 310.608 81.3167 310.608 89.67C310.608 97.5567 308.695 103.367 304.868 107.1C301.041 110.833 295.465 112.7 288.138 112.7ZM288.138 103.11C291.918 103.11 294.671 102.037 296.398 99.89C298.171 97.6967 299.058 94.29 299.058 89.67C299.058 84.63 298.171 81.0833 296.398 79.03C294.671 76.93 291.918 75.88 288.138 75.88C284.311 75.88 281.511 76.93 279.738 79.03C278.011 81.0833 277.148 84.63 277.148 89.67C277.148 94.29 278.011 97.6967 279.738 99.89C281.511 102.037 284.311 103.11 288.138 103.11ZM330.705 112.7C327.718 112.7 324.918 112.467 322.305 112C319.738 111.58 317.522 110.95 315.655 110.11V100.52C317.708 101.407 319.972 102.13 322.445 102.69C324.965 103.25 327.345 103.53 329.585 103.53C332.385 103.53 334.462 103.273 335.815 102.76C337.215 102.247 337.915 101.127 337.915 99.4C337.915 98.2333 337.565 97.3 336.865 96.6C336.212 95.9 335.115 95.2933 333.575 94.78C332.082 94.22 330.028 93.5667 327.415 92.82C324.335 91.8867 321.885 90.86 320.065 89.74C318.245 88.5733 316.938 87.1733 316.145 85.54C315.352 83.9067 314.955 81.9 314.955 79.52C314.955 75.2267 316.495 71.9367 319.575 69.65C322.655 67.3633 327.205 66.22 333.225 66.22C335.838 66.22 338.382 66.43 340.855 66.85C343.328 67.2233 345.335 67.6667 346.875 68.18V77.84C344.868 77.0467 342.838 76.4633 340.785 76.09C338.778 75.7167 336.818 75.53 334.905 75.53C332.385 75.53 330.332 75.7633 328.745 76.23C327.205 76.6967 326.435 77.77 326.435 79.45C326.435 80.43 326.715 81.2233 327.275 81.83C327.835 82.39 328.792 82.9033 330.145 83.37C331.545 83.8367 333.435 84.3967 335.815 85.05C339.502 86.03 342.325 87.22 344.285 88.62C346.245 89.9733 347.598 91.56 348.345 93.38C349.092 95.1533 349.465 97.16 349.465 99.4C349.465 103.367 347.925 106.587 344.845 109.06C341.765 111.487 337.052 112.7 330.705 112.7ZM355.183 112V66.92H366.453V84.77H384.093V66.92H395.363V112H384.093V94.15H366.453V112H355.183ZM401.088 112L418.308 66.92H430.488L447.708 112H435.948L431.888 101.78H416.838L412.848 112H401.088ZM418.378 93.45H430.348L424.328 77.77L418.378 93.45Z" fill="#D7D7D7"/>
<path d="M175.744 183.7C167.857 183.7 161.837 181.693 157.684 177.68C153.577 173.62 151.524 167.997 151.524 160.81C151.524 153.297 153.53 147.487 157.544 143.38C161.604 139.273 167.647 137.22 175.674 137.22C178.427 137.22 180.877 137.43 183.024 137.85C185.217 138.27 187.317 138.83 189.324 139.53V149.4C185.264 147.72 180.994 146.88 176.514 146.88C171.847 146.88 168.417 148 166.224 150.24C164.077 152.48 163.004 156.003 163.004 160.81C163.004 165.383 164.147 168.743 166.434 170.89C168.72 173.037 172.127 174.11 176.654 174.11C178.847 174.11 181.017 173.923 183.164 173.55C185.31 173.13 187.387 172.5 189.394 171.66V181.6C187.434 182.253 185.357 182.767 183.164 183.14C180.97 183.513 178.497 183.7 175.744 183.7ZM215.488 183.7C208.161 183.7 202.584 181.833 198.758 178.1C194.931 174.367 193.018 168.557 193.018 160.67C193.018 152.317 194.931 146.32 198.758 142.68C202.584 139.04 208.161 137.22 215.488 137.22C222.814 137.22 228.391 139.04 232.218 142.68C236.044 146.32 237.958 152.317 237.958 160.67C237.958 168.557 236.044 174.367 232.218 178.1C228.391 181.833 222.814 183.7 215.488 183.7ZM215.488 174.11C219.268 174.11 222.021 173.037 223.748 170.89C225.521 168.697 226.408 165.29 226.408 160.67C226.408 155.63 225.521 152.083 223.748 150.03C222.021 147.93 219.268 146.88 215.488 146.88C211.661 146.88 208.861 147.93 207.088 150.03C205.361 152.083 204.498 155.63 204.498 160.67C204.498 165.29 205.361 168.697 207.088 170.89C208.861 173.037 211.661 174.11 215.488 174.11ZM264.075 183.7C259.875 183.7 256.211 183.023 253.085 181.67C250.005 180.317 247.601 178.31 245.875 175.65C244.195 172.99 243.355 169.723 243.355 165.85V137.92H254.625V164.8C254.625 167.927 255.441 170.26 257.075 171.8C258.708 173.34 261.041 174.11 264.075 174.11C267.108 174.11 269.441 173.34 271.075 171.8C272.708 170.26 273.525 167.927 273.525 164.8V137.92H284.795V165.85C284.795 169.723 283.931 172.99 282.205 175.65C280.525 178.31 278.121 180.317 274.995 181.67C271.915 183.023 268.275 183.7 264.075 183.7ZM291.556 183V137.92H301.216L320.396 164.87V137.92H331.736V183H322.006L302.826 156.12V183H291.556ZM349.291 183V146.6H336.061V137.92H373.791V146.6H360.561V183H349.291ZM391.468 183V166.41L375.298 137.92H387.058L397.138 156.61L407.218 137.92H418.978L402.808 166.41V183H391.468Z" fill="#D7D7D7"/>
<path d="M0 82.8023V0L61 128.243L0 258V189.84L27.5 128.243L0 82.8023Z" fill="#737373"/>
<rect x="1419" width="8" height="377" fill="#6D6D6D"/>
<defs>
<linearGradient id="paint0_linear_72_15" x1="1194.86" y1="129" x2="32" y2="129" gradientUnits="userSpaceOnUse">
<stop stop-color="#272727"/>
<stop offset="1" stop-color="#565656"/>
</linearGradient>
<linearGradient id="paint1_linear_72_15" x1="1194.86" y1="129" x2="32" y2="129" gradientUnits="userSpaceOnUse">
<stop stop-color="#272727"/>
<stop offset="1" stop-color="#565656"/>
</linearGradient>
<linearGradient id="paint2_linear_72_15" x1="1194.86" y1="129" x2="32" y2="129" gradientUnits="userSpaceOnUse">
<stop stop-color="#272727"/>
<stop offset="1" stop-color="#565656"/>
</linearGradient>
<linearGradient id="paint3_linear_72_15" x1="1194.86" y1="129" x2="32" y2="129" gradientUnits="userSpaceOnUse">
<stop stop-color="#272727"/>
<stop offset="1" stop-color="#565656"/>
</linearGradient>
</defs>
</svg>
